<?xml version="1.0" standalone="no"?>
<!DOCTYPE svg PUBLIC "-//W3C//DTD SVG 1.1//EN" "http://www.w3.org/Graphics/SVG/1.1/DTD/svg11.dtd" >
<svg xmlns="http://www.w3.org/2000/svg">
<metadata></metadata>
<defs>
<font id="futurateemedregular" horiz-adv-x="1161" >
<font-face units-per-em="2048" ascent="1529" descent="-519" />
<missing-glyph horiz-adv-x="512" />
<glyph horiz-adv-x="2048" />
<glyph horiz-adv-x="2048" />
<glyph unicode="&#xd;" horiz-adv-x="2048" />
<glyph unicode=" "  horiz-adv-x="512" />
<glyph unicode="&#x09;" horiz-adv-x="512" />
<glyph unicode="&#xa0;" horiz-adv-x="512" />
<glyph unicode="!" horiz-adv-x="601" d="M177 97q0 51 36 87t88 36q50 0 86 -36t36 -87t-36 -87t-87 -36t-87 36q-36 37 -36 87zM200 304v1061h199v-1061h-199z" />
<glyph unicode="&#x22;" horiz-adv-x="743" d="M97 1365h226l-38 -549h-150zM421 1365h226l-38 -549h-151z" />
<glyph unicode="#" horiz-adv-x="1136" d="M46 420v153h224l31 253h-204v156h224l48 395l155 -20l-46 -375h260l50 395l155 -20l-47 -375h198v-156h-215l-32 -253h197v-156h-217l-52 -424l-155 21l50 403h-262l-53 -424l-158 21l51 406h-202zM427 573h261l31 253h-260z" />
<glyph unicode="$" d="M126 381l195 40q33 -111 70 -160q29 -40 80 -63t107 -23q107 0 173 74q54 61 54 149q0 102 -77 162q-55 43 -194 107q-109 49 -146 73q-83 55 -125 137q-40 77 -40 162q0 79 36 151t98 118q68 51 168 77v174h154v-174q196 -30 297 -229l-172 -96q-37 66 -70 94 q-56 47 -134 47q-91 0 -142 -61q-37 -43 -37 -99q0 -72 59 -121q37 -30 146 -80q186 -85 261 -152q57 -51 89 -126.5t32 -156.5q0 -83 -34 -165.5t-93 -141.5q-78 -80 -202 -112v-184h-154v178q-169 26 -273 131q-86 88 -126 270z" />
<glyph unicode="%" horiz-adv-x="1659" d="M68 1060q0 134 107 233q93 86 228 86q143 0 241 -112q82 -92 82 -209q0 -139 -107 -236q-93 -86 -222 -86q-150 0 -248 112q-81 92 -81 212zM222 1057q0 -72 51 -124q51 -51 124 -51t124 51q51 52 51 124q0 74 -51 124q-53 51 -126 51q-71 0 -122 -51q-51 -52 -51 -124z M390 37l782 1351l96 -54l-781 -1357zM932 311q0 134 107 233q93 87 227 87q144 0 242 -112q82 -93 82 -210q0 -139 -107 -237q-94 -86 -222 -86q-150 0 -248 112q-81 93 -81 213zM1086 309q0 -72 51 -124t124 -52q72 0 124 52q51 51 51 123q0 74 -51 125q-53 51 -126 51 q-71 0 -122 -51q-51 -53 -51 -124z" />
<glyph unicode="&#x26;" horiz-adv-x="1323" d="M109 377q0 181 159 311q18 15 109 78q20 14 36 26q-135 145 -135 284q0 136 94 229q83 82 233 82q148 0 236 -87q89 -87 89 -210q0 -92 -61 -173q-48 -64 -170 -157l246 -298q104 117 152 178l134 -138q-37 -53 -161 -190l253 -312h-256l-136 167q-51 -53 -115 -97 q-75 -53 -136 -75q-59 -22 -140 -22q-206 0 -329 140q-102 116 -102 264zM307 383q0 -44 24 -91.5t64 -80.5q59 -51 135 -51q91 0 191 80q42 33 85 76l-270 327q-78 -53 -119 -86q-110 -89 -110 -174zM471 1099q0 -61 48 -119q51 -62 61 -76q59 45 87 68q69 56 69 124 q0 58 -42 91q-38 29 -91 29q-67 0 -104 -44q-28 -33 -28 -73z" />
<glyph unicode="'" horiz-adv-x="419" d="M97 1365h226l-38 -549h-150z" />
<glyph unicode="(" horiz-adv-x="664" d="M164 565q0 294 65 580q43 189 128 364l184 -71q-82 -196 -114 -327q-61 -245 -61 -546t61 -546q32 -131 114 -327l-184 -71q-85 175 -128 363q-65 287 -65 581z" />
<glyph unicode=")" horiz-adv-x="664" d="M123 -308q82 196 114 327q61 244 61 546q0 301 -61 546q-32 131 -114 327l184 71q85 -176 128 -364q65 -286 65 -580t-65 -581q-43 -188 -128 -363z" />
<glyph unicode="*" d="M227 1173l55 169l223 -87l-14 239h178l-14 -239l223 87l55 -169l-231 -61l151 -185l-143 -104l-130 201l-129 -201l-144 104l152 185z" />
<glyph unicode="+" d="M109 628v164h389v382h164v-382h389v-164h-389v-382h-164v382h-389z" />
<glyph unicode="," horiz-adv-x="519" d="M18 -264l209 520l178 -69l-252 -506z" />
<glyph unicode="-" horiz-adv-x="395" d="M0 351v173h395v-173h-395z" />
<glyph unicode="." horiz-adv-x="518" d="M136 97q0 51 36 87t88 36q50 0 86 -36t36 -87t-36 -87t-87 -36t-87 36q-36 37 -36 87z" />
<glyph unicode="/" horiz-adv-x="939" d="M-14 -301l781 1810l164 -73l-782 -1810z" />
<glyph unicode="0" d="M98 680q0 303 127 496q65 100 161 156t200 56q139 0 264 -113q111 -100 166 -271q46 -144 46 -322q0 -296 -127 -493q-59 -92 -154 -152q-96 -60 -201 -60q-146 0 -271 113q-110 99 -165 271q-46 144 -46 319zM300 683q0 -218 86 -382q72 -136 194 -136t194 136 q86 164 86 380q0 226 -86 385q-74 135 -198 135q-118 0 -190 -135q-86 -163 -86 -383z" />
<glyph unicode="1" d="M277 1172l113 193h329v-1365h-206v1172h-236z" />
<glyph unicode="2" d="M67 0l474 574q80 97 164 212q75 104 75 191q0 106 -81 171q-65 53 -152 53q-123 0 -189 -95q-35 -49 -48 -149h-204q18 154 78 247q122 184 357 184q191 0 318 -123q122 -119 122 -289q0 -140 -100 -285q-66 -97 -193 -246l-212 -251h508v-194h-917z" />
<glyph unicode="3" d="M99 370h199q13 -81 50 -123q71 -82 188 -82q113 0 180 82q51 63 51 157q0 72 -33 129t-89 79q-48 20 -154 22v176q82 0 117 7q67 13 104 68q35 51 35 118q0 89 -59 144q-58 54 -149 54q-107 0 -158 -71q-24 -33 -41 -113h-206q24 139 73 214q104 157 335 157 q191 0 300 -112q106 -109 106 -265q0 -188 -148 -291q169 -101 169 -324q0 -205 -147 -322q-121 -97 -294 -97q-169 0 -284 93q-97 77 -127 190q-11 38 -18 110z" />
<glyph unicode="4" d="M39 194l876 1273v-1086h144v-187h-144v-194h-206v194h-670zM394 381h315v458z" />
<glyph unicode="5" d="M57 233l156 132q49 -83 86 -119q83 -80 204 -80q140 0 224 107q67 85 67 196q0 135 -93 224q-78 76 -198 76q-101 0 -175 -56q-26 -20 -63 -65h-69l215 717h564v-193h-420l-68 -226q30 3 53 3q112 0 197 -39q121 -55 191 -177q67 -120 67 -260q0 -230 -161 -371 q-143 -125 -349 -125q-179 0 -309 109q-61 52 -119 147z" />
<glyph unicode="6" d="M122 421q0 162 134 344l477 649l151 -114l-326 -444q42 7 74 7q151 0 266 -105q142 -131 142 -324q0 -201 -150 -338q-129 -119 -305 -119q-197 0 -336 142q-127 131 -127 302zM323 423q0 -106 76 -182q75 -75 183 -75q107 0 182 75q75 76 75 182q0 108 -75 182 q-77 75 -186 75q-104 0 -179 -75q-76 -76 -76 -182z" />
<glyph unicode="7" d="M109 55l680 1117h-673v193h1018l-862 -1413z" />
<glyph unicode="8" d="M152 388q0 150 86 248q39 45 99 74q-151 106 -151 289q0 168 120 283q111 106 280 106q189 0 303 -133q93 -108 93 -257q0 -176 -149 -287q57 -31 96 -81q80 -103 80 -239q0 -185 -127 -307q-112 -107 -295 -107q-101 0 -190 38t-148 107q-97 113 -97 266zM354 393 q0 -94 66 -161t160 -67q95 0 161 67t66 160q0 96 -66 162q-68 66 -164 66q-91 0 -157 -66q-66 -68 -66 -161zM380 997q0 -83 60 -144q59 -60 144 -60t144 60q60 60 60 144q0 86 -60 144q-61 60 -147 60q-82 0 -141 -60q-60 -60 -60 -144z" />
<glyph unicode="9" d="M122 932q0 200 150 337q130 119 305 119q197 0 336 -142q127 -131 127 -301q0 -162 -134 -345l-477 -648l-151 113l326 445q-44 -7 -74 -7q-151 0 -266 106q-142 129 -142 323zM323 944q0 -106 76 -183q74 -75 182 -75q107 0 183 75q75 76 75 182q0 109 -75 183 q-78 75 -187 75q-104 0 -178 -75q-76 -77 -76 -182z" />
<glyph unicode=":" horiz-adv-x="518" d="M136 97q0 51 36 87t88 36q50 0 86 -36t36 -87t-36 -87t-87 -36t-87 36q-36 37 -36 87zM136 762q0 51 36 87t88 36q50 0 86 -36t36 -87t-36 -87t-87 -36t-87 36q-36 37 -36 87z" />
<glyph unicode=";" horiz-adv-x="518" d="M18 -264l209 520l178 -69l-252 -506zM179 762q0 51 36 87t89 36q49 0 85 -36t36 -87t-36 -87t-87 -36t-87 36q-36 37 -36 87z" />
<glyph unicode="&#x3c;" horiz-adv-x="1024" d="M68 606v174l887 433v-203l-670 -317l670 -318v-202z" />
<glyph unicode="=" d="M109 492v150h942v-150h-942zM109 778v150h942v-150h-942z" />
<glyph unicode="&#x3e;" horiz-adv-x="1024" d="M69 172v204l670 317l-670 317v202l887 -433v-174z" />
<glyph unicode="?" horiz-adv-x="886" d="M108 1058q0 91 40 162q47 84 138 129q71 35 154 35q149 0 249 -102q88 -90 88 -226q0 -77 -32.5 -144t-89.5 -108q-60 -43 -205 -88q-63 -19 -86 -42q-29 -29 -29 -70q0 -44 33 -76q28 -27 72 -27q60 0 86 48q16 29 19 89h201q-5 -124 -54 -193q-40 -59 -113 -96 q-70 -35 -143 -35q-130 0 -219 95q-81 86 -81 212q0 114 73 185q48 46 167 89q118 43 151 65q49 34 49 102t-46 103q-37 29 -89 29q-67 0 -105 -44q-28 -34 -28 -88q0 -27 10 -75h-205q-5 46 -5 71zM321 97q0 51 36 87t88 36q50 0 86 -36t36 -87t-36 -87t-87 -36t-87 36 q-36 37 -36 87z" />
<glyph unicode="@" horiz-adv-x="1594" d="M96 683q0 154 60.5 289.5t174.5 234.5q208 182 498 182q151 0 286.5 -55.5t227.5 -153.5q156 -168 156 -400q0 -160 -76 -300q-63 -115 -155 -161q-60 -31 -120 -31q-113 0 -154 108q-47 -49 -83 -70q-71 -42 -158 -42q-149 0 -244 106q-96 105 -96 266q0 185 120 300 q106 101 256 101q148 0 240 -115l12 98h134l-56 -464q-6 -50 -6 -93q0 -66 55 -66q30 0 55 17q56 36 89 100q57 109 57 235q0 226 -158 363q-155 134 -380 134q-248 0 -416 -170q-165 -168 -165 -411q0 -230 146 -392q165 -184 453 -184q210 0 404 92q14 7 42 20l46 -127 q-241 -118 -491 -118q-235 0 -405 96q-156 89 -249 245q-100 167 -100 366zM595 648q0 -92 47 -152q46 -59 118 -59q96 0 165 79q70 80 70 187q0 84 -59 136t-139 52q-86 0 -144 -68t-58 -175z" />
<glyph unicode="A" horiz-adv-x="1341" d="M7 0l676 1452l651 -1452h-225l-144 332h-584l-152 -332h-222zM467 526h415l-203 464z" />
<glyph unicode="B" horiz-adv-x="1070" d="M164 0v1365h205q122 0 197.5 -16t130.5 -54q74 -50 117 -144q38 -81 38 -167q0 -148 -112 -249q74 -26 125 -74q110 -106 110 -270q0 -179 -137 -293q-74 -61 -154 -79q-83 -19 -208 -19h-312zM370 194h128q126 0 189 43q39 25 62 69.5t23 92.5q0 46 -23 91t-61 71 q-66 45 -214 45h-104v-412zM370 779h64q116 0 165 48q58 58 58 153q0 93 -57 148q-49 48 -158 48h-72v-397z" />
<glyph unicode="C" horiz-adv-x="1268" d="M96 676q0 147 60 284t168 239q203 192 493 192q184 0 356 -100v-244q-91 77 -163 107q-102 43 -206 43q-114 0 -215 -49t-171 -138q-114 -144 -114 -332q0 -235 166 -382q144 -128 334 -128q129 0 247 65q47 26 122 90v-248q-177 -101 -372 -101q-156 0 -295.5 64 t-239.5 181q-170 199 -170 457z" />
<glyph unicode="D" horiz-adv-x="1315" d="M164 0v1365h287q219 0 345 -47q224 -83 339 -290q84 -152 84 -345q0 -355 -273 -552q-131 -94 -271 -116q-92 -15 -228 -15h-283zM370 194h93q124 0 207.5 22.5t154.5 75.5q89 66 137.5 168t48.5 222q0 168 -91 297q-91 128 -246 169q-84 23 -211 23h-93v-977z" />
<glyph unicode="E" horiz-adv-x="1024" d="M164 0v1365h754v-194h-548v-327h531v-194h-531v-456h548v-194h-754z" />
<glyph unicode="F" horiz-adv-x="920" d="M164 0v1365h681v-194h-475v-327h459v-194h-459v-650h-206z" />
<glyph unicode="G" horiz-adv-x="1526" d="M96 679q0 164 68 308t193 245q197 159 453 159q229 0 409 -132q67 -49 151 -145l-147 -141q-170 224 -410 224q-220 0 -372 -158q-138 -143 -138 -359q0 -229 163 -375q153 -137 331 -137q163 0 285 112q111 101 125 237h-341v194h564q0 -115 -7 -181q-25 -227 -186 -380 q-185 -176 -447 -176q-150 0 -287.5 64.5t-237.5 181.5q-169 198 -169 459z" />
<glyph unicode="H" horiz-adv-x="1328" d="M164 0v1365h206v-534h589v534h206v-1365h-206v637h-589v-637h-206z" />
<glyph unicode="I" horiz-adv-x="534" d="M164 0v1365h206v-1365h-206z" />
<glyph unicode="J" horiz-adv-x="743" d="M-34 43l102 175q75 -50 140 -50q109 0 144 103q21 60 21 211v883h206v-883q0 -161 -24 -244q-42 -143 -156 -214q-81 -50 -191 -50q-127 0 -242 69z" />
<glyph unicode="K" horiz-adv-x="1200" d="M164 0v1365h206v-545l531 545h275l-616 -618l620 -747h-276l-491 607l-43 -42v-565h-206z" />
<glyph unicode="L" horiz-adv-x="803" d="M164 0v1365h206v-1171h402v-194h-608z" />
<glyph unicode="M" horiz-adv-x="1741" d="M116 0l287 1468l469 -1061l485 1061l258 -1468h-211l-131 824l-404 -888l-394 889l-146 -825h-213z" />
<glyph unicode="N" horiz-adv-x="1529" d="M164 0v1458l995 -1041v948h206v-1449l-995 1040v-956h-206z" />
<glyph unicode="O" horiz-adv-x="1618" d="M96 682q0 298 218 507q210 202 510 202q142 0 276 -60.5t235 -171.5q188 -205 188 -478q0 -149 -61 -285.5t-173 -236.5q-205 -185 -481 -185q-152 0 -295 64t-245 178q-172 191 -172 466zM304 677q0 -218 152 -364q151 -145 354 -145q109 0 210.5 47t173.5 131 q121 140 121 340q0 211 -145 363q-143 148 -368 148q-231 0 -379 -180q-119 -145 -119 -340z" />
<glyph unicode="P" horiz-adv-x="978" d="M164 0v1365h233q189 0 270 -27q148 -49 218 -189q45 -89 45 -189q0 -176 -119 -290q-121 -116 -345 -116h-96v-554h-206zM370 745h77q148 0 214 55q70 59 70 163q0 108 -77 163q-68 49 -216 49h-68v-430z" />
<glyph unicode="Q" horiz-adv-x="1618" d="M96 677q0 308 217 513q101 96 230.5 148.5t265.5 52.5q146 0 284 -60.5t240 -169.5q190 -203 190 -495q0 -199 -101 -356q-34 -51 -94 -114l225 -222h-259l-107 111q-172 -111 -380 -111q-151 0 -294.5 64.5t-245.5 178.5q-171 190 -171 460zM304 675q0 -221 147 -361 q152 -146 348 -146q134 0 242 61l-320 312h265l199 -198q57 60 83 115q47 98 47 222q0 224 -149 371q-148 146 -359 146q-115 0 -216.5 -46.5t-171.5 -132.5q-115 -139 -115 -343z" />
<glyph unicode="R" horiz-adv-x="1090" d="M164 0v1365h241q132 0 214 -18t146 -61q76 -51 121 -141q42 -85 42 -181q0 -107 -52 -200q-81 -146 -250 -182l423 -582h-252l-390 559h-37v-559h-206zM370 739h66q136 0 205 49q86 60 86 174q0 106 -80 162q-68 47 -204 47h-73v-432z" />
<glyph unicode="S" horiz-adv-x="1055" d="M96 377l208 46q13 -104 39 -150q27 -48 80.5 -76.5t116.5 -28.5q104 0 168 74q56 64 56 154q0 115 -95 179q-46 30 -100 53l-132 56q-280 118 -280 346q0 183 156 286q114 75 254 75q155 0 264 -94q54 -47 105 -135l-167 -99q-37 61 -65 86q-52 48 -138 48 q-90 0 -146 -51q-54 -49 -54 -119q0 -68 65 -113q41 -29 84 -47l136 -55q171 -70 244 -166q76 -100 76 -235q0 -198 -139 -326q-120 -111 -300 -111q-231 0 -357 182q-59 85 -79 221z" />
<glyph unicode="T" horiz-adv-x="874" d="M20 1171v194h833v-194h-313v-1171h-206v1171h-314z" />
<glyph unicode="U" horiz-adv-x="1338" d="M164 487v878h206v-822q0 -112 15 -166q24 -92 98 -148q81 -61 186 -61q121 0 206 78q67 61 84 156q9 48 9 141v822h206v-878q0 -191 -104 -322q-71 -90 -178 -140q-106 -51 -223 -51q-166 0 -302 97q-203 145 -203 416z" />
<glyph unicode="V" horiz-adv-x="1225" d="M7 1365h225l378 -946l383 946h225l-612 -1468z" />
<glyph unicode="W" horiz-adv-x="1921" d="M7 1365h223l356 -912l372 978l355 -979l378 913h223l-610 -1453l-351 968l-366 -968z" />
<glyph unicode="X" horiz-adv-x="1118" d="M20 0l429 714l-376 651h234l261 -463l274 463h236l-393 -652l413 -713h-231l-302 522l-312 -522h-233z" />
<glyph unicode="Y" horiz-adv-x="1087" d="M-7 1365h238l312 -546l313 546h237l-447 -775v-590h-206v590z" />
<glyph unicode="Z" horiz-adv-x="1132" d="M61 0l670 1171h-561v194h900l-671 -1171h656v-194h-994z" />
<glyph unicode="[" horiz-adv-x="647" d="M177 -363v1857h374v-187h-172v-1483h172v-187h-374z" />
<glyph unicode="\" horiz-adv-x="939" d="M7 1436l164 73l781 -1810l-163 -73z" />
<glyph unicode="]" horiz-adv-x="647" d="M96 -176h172v1483h-172v187h374v-1857h-374v187z" />
<glyph unicode="^" horiz-adv-x="1024" d="M32 718l346 653h269l346 -653h-217l-264 490l-263 -490h-217z" />
<glyph unicode="_" horiz-adv-x="1024" d="M0 -115h1024v-186h-1024v186z" />
<glyph unicode="`" horiz-adv-x="1024" d="M174 1285l187 98l243 -323l-109 -66z" />
<glyph unicode="a" horiz-adv-x="1085" d="M85 433q0 210 129 337q118 115 277 115q122 0 214 -71q23 -18 56 -53v101h199v-862h-199v90q-49 -46 -86 -68q-78 -48 -178 -48q-189 0 -309 145q-103 124 -103 314zM288 429q0 -131 81 -213q63 -63 159 -63q118 0 188 89q57 73 57 189q0 130 -76 206q-68 69 -173 69 q-106 0 -172 -84q-64 -80 -64 -193z" />
<glyph unicode="b" horiz-adv-x="1085" d="M126 0v1494h199v-732q119 123 271 123q89 0 170.5 -40.5t139.5 -112.5q95 -120 95 -299q0 -220 -135 -349q-116 -110 -274 -110q-148 0 -267 116v-90h-199zM313 429q0 -133 76 -208q69 -68 169 -68q110 0 176 83q64 80 64 195q0 127 -81 211q-62 64 -163 64 q-112 0 -184 -90q-57 -72 -57 -187z" />
<glyph unicode="c" horiz-adv-x="863" d="M84 427q0 93 38.5 181.5t107.5 153.5q129 123 325 123q129 0 241 -60v-265q-67 81 -113 109q-61 37 -134 37q-120 0 -194 -87q-67 -78 -67 -189q0 -118 73 -200q68 -77 184 -77q87 0 155 50q36 26 96 98v-263q-121 -64 -243 -64q-216 0 -349 146q-120 132 -120 307z" />
<glyph unicode="d" horiz-adv-x="1085" d="M85 433q0 210 129 337q118 115 277 115q151 0 270 -123v732h199v-1494h-199v90q-119 -116 -267 -116q-186 0 -306 145q-103 124 -103 314zM288 429q0 -131 81 -213q63 -63 159 -63q118 0 188 89q57 72 57 189q0 130 -76 206q-68 69 -173 69q-106 0 -172 -84 q-64 -80 -64 -193z" />
<glyph unicode="e" horiz-adv-x="1002" d="M85 430q0 105 33 195t92 148q114 112 290 112q148 0 259 -82q152 -114 152 -370q0 -15 -1 -49h-617q5 -63 30 -112q60 -119 195 -119q92 0 155 62q32 33 77 104l168 -94q-59 -98 -115 -147q-121 -104 -292 -104q-208 0 -332 150q-94 115 -94 306zM306 546h400 q-14 55 -40 87q-58 73 -161 73q-105 0 -165 -86q-23 -32 -34 -74z" />
<glyph unicode="f" horiz-adv-x="538" d="M61 676v186h71v331q0 161 57 230q36 44 99 70q61 24 127 24q60 0 133 -31v-203q-85 43 -129 43q-57 0 -74 -48q-14 -35 -14 -133v-283h217v-186h-217v-676h-199v676h-71z" />
<glyph unicode="g" horiz-adv-x="1084" d="M86 429q0 218 132 345q116 111 272 111q163 0 270 -121v98h199v-842q0 -156 -25 -230q-46 -133 -163 -202q-101 -59 -230 -59q-206 0 -319 127q-100 113 -101 292h196q5 -96 32 -141q26 -45 79 -72t114 -27q56 0 104.5 23.5t75.5 63.5q38 58 38 180v121 q-119 -122 -273 -122q-174 0 -295 135q-106 119 -106 320zM289 424q0 -131 72 -201q70 -70 168 -70q116 0 184 90q55 72 55 191q0 140 -86 214q-66 58 -160 58q-118 0 -184 -97q-49 -72 -49 -185z" />
<glyph unicode="h" horiz-adv-x="993" d="M126 0v1494h199v-704q105 95 234 95q78 0 145 -31.5t106 -85.5q41 -57 51 -131q6 -49 6 -109v-528h-199v509q0 89 -26 135q-35 62 -129 62q-57 0 -101 -24t-61 -66q-26 -61 -26 -200v-416h-199z" />
<glyph unicode="i" horiz-adv-x="451" d="M96 1217q0 54 38 92t93 38q52 0 90 -38t38 -91q0 -54 -38 -92t-92 -38q-53 0 -91 38q-38 39 -38 91zM126 0v862h199v-862h-199z" />
<glyph unicode="j" horiz-adv-x="451" d="M96 1217q0 54 38 92t93 38q52 0 90 -38t38 -91q0 -54 -38 -92t-92 -38q-53 0 -91 38q-38 39 -38 91zM126 -470v1332h199v-1332h-199z" />
<glyph unicode="k" horiz-adv-x="902" d="M126 0v1494h199v-911l280 279h267l-374 -362l401 -500h-258l-285 363l-31 -31v-332h-199z" />
<glyph unicode="l" horiz-adv-x="451" d="M126 0v1494h199v-1494h-199z" />
<glyph unicode="m" horiz-adv-x="1432" d="M126 0v862h199v-80q35 38 57 56q61 47 148 47q147 0 232 -127q94 127 254 127q82 0 149.5 -37t99.5 -98q42 -81 42 -217v-533h-199v479q0 105 -21 158q-28 69 -111 69q-96 0 -131 -81q-27 -62 -27 -180v-445h-199v476q0 95 -21 152q-29 78 -113 78q-41 0 -77.5 -22 t-53.5 -56q-29 -57 -29 -183v-445h-199z" />
<glyph unicode="n" horiz-adv-x="993" d="M126 0v862h199v-80q41 40 70 59q70 44 167 44q80 0 147.5 -31.5t104.5 -85.5q54 -79 54 -240v-528h-199v482q0 118 -26 162q-38 62 -136 62q-118 0 -155 -90q-27 -66 -27 -200v-416h-199z" />
<glyph unicode="o" horiz-adv-x="1088" d="M85 433q0 195 146 332q127 120 321 120q206 0 340 -155q112 -129 112 -300q0 -201 -146 -336q-128 -120 -313 -120q-215 0 -349 156q-111 129 -111 303zM288 430q0 -133 76 -208q70 -69 181 -69q129 0 200 92q56 72 56 187q0 129 -76 204q-69 70 -186 70q-125 0 -196 -94 q-55 -74 -55 -182z" />
<glyph unicode="p" horiz-adv-x="1085" d="M126 -470v1332h199v-94q118 117 267 117q186 0 306 -145q103 -124 103 -314q0 -210 -130 -337q-117 -115 -275 -115q-152 0 -271 123v-567h-199zM313 429q0 -132 76 -207q69 -69 169 -69q110 0 176 83q64 81 64 197q0 127 -81 210q-62 63 -164 63q-112 0 -183 -89 q-57 -72 -57 -188z" />
<glyph unicode="q" horiz-adv-x="1085" d="M85 426q0 220 135 349q116 110 274 110q149 0 267 -117v94h199v-1332h-199v567q-119 -123 -271 -123q-89 0 -171 40.5t-139 112.5q-95 120 -95 299zM288 430q0 -131 81 -213q63 -64 159 -64q118 0 188 90q57 72 57 190q0 129 -76 205q-68 68 -173 68q-106 0 -172 -83 q-64 -80 -64 -193z" />
<glyph unicode="r" horiz-adv-x="678" d="M126 0v862h199v-77q51 53 86 73q50 28 113 28q79 0 165 -52l-92 -182q-57 41 -110 41q-78 0 -120 -57q-42 -56 -42 -190v-446h-199z" />
<glyph unicode="s" horiz-adv-x="735" d="M67 187l169 78q26 -47 45 -68q39 -44 94 -44q57 0 83 34q20 25 20 58q0 50 -52 82q-35 21 -147 76q-94 46 -127 90q-40 53 -40 133q0 120 82 190q80 69 186 69q116 0 191 -82q26 -29 55 -88l-165 -88q-38 79 -97 79q-27 0 -47 -19q-18 -18 -18 -42q0 -30 28 -52 q20 -16 87 -47q111 -51 164 -88q103 -71 103 -194q0 -122 -91 -208q-88 -82 -216 -82q-217 0 -307 213z" />
<glyph unicode="t" horiz-adv-x="495" d="M47 676v186h85v315h199v-315h154v-186h-154v-676h-199v676h-85z" />
<glyph unicode="u" horiz-adv-x="987" d="M126 363v499h199v-495q0 -92 25 -137q42 -77 144 -77t144 77q25 45 25 137v495h199v-499q0 -135 -37 -206q-50 -95 -148 -144q-80 -39 -183 -39q-173 0 -277 109q-58 61 -76 130q-15 61 -15 150z" />
<glyph unicode="v" horiz-adv-x="910" d="M10 862h223l223 -484l222 484h223l-447 -922z" />
<glyph unicode="w" horiz-adv-x="1402" d="M10 862h224l225 -492l243 570l245 -570l223 492h223l-451 -927l-240 555l-242 -555z" />
<glyph unicode="x" horiz-adv-x="1011" d="M10 0l382 467l-309 395h237l192 -252l196 252h243l-318 -396l369 -466h-237l-253 322l-259 -322h-243z" />
<glyph unicode="y" horiz-adv-x="984" d="M10 862h231l263 -496l246 496h225l-686 -1332h-227l335 630z" />
<glyph unicode="z" horiz-adv-x="984" d="M16 0l558 676h-439v186h833l-557 -675h512v-187h-907z" />
<glyph unicode="{" horiz-adv-x="647" d="M84 486v170q46 11 73 36q40 37 42 133v395q0 151 49 212q61 76 184 76q19 0 72 -2q17 0 51 -1v-178h-25q-94 0 -116 -54q-11 -27 -11 -106v-355q-2 -153 -64 -206q-20 -18 -60 -42q55 -33 81 -71q44 -65 43 -125v-402q0 -105 22 -131q29 -34 99 -34q10 0 31 1v-178 q-39 -1 -50 -2q-59 -2 -71 -2q-119 0 -176 68q-59 68 -59 232v436q-11 111 -115 130z" />
<glyph unicode="|" horiz-adv-x="1024" d="M410 -341v1706h205v-1706h-205z" />
<glyph unicode="}" horiz-adv-x="647" d="M93 -198h25q94 0 116 54q11 27 11 107v354q2 153 64 206q20 18 60 42q-55 33 -81 71q-44 65 -43 125v402q0 105 -22 131q-29 34 -99 34q-10 0 -31 -1v178q38 1 50 2q57 2 71 2q119 0 177 -68t58 -232v-436q11 -111 115 -130v-170q-46 -11 -73 -36q-41 -37 -42 -133v-395 q0 -151 -50 -212q-60 -76 -183 -76q-21 0 -72 2q-17 0 -51 1v178z" />
<glyph unicode="~" horiz-adv-x="1365" d="M187 1246q63 133 119 191q65 68 173 68q84 0 224 -62q128 -56 188 -56q45 0 85 22q10 6 71 81q20 25 38 25q40 0 92 -75q-59 -120 -118 -177q-33 -33 -85 -53.5t-102 -20.5q-79 0 -230 69q-109 50 -180 50q-34 0 -75 -24q-11 -7 -73 -94q-17 -23 -36 -23q-40 0 -91 79z " />
<glyph horiz-adv-x="874" d="M20 1171v194h833v-194h-313v-1171h-206v1171h-314zM124 1772l136 105l178 -167l176 167l135 -105l-311 -284z" />
<glyph horiz-adv-x="1132" d="M61 0l670 1171h-561v194h900l-671 -1171h656v-194h-994zM294 1772l136 105l178 -167l176 167l135 -105l-311 -284z" />
<glyph horiz-adv-x="1132" d="M61 0l670 1171h-561v194h900l-671 -1171h656v-194h-994zM459 1570l283 285l175 -123l-360 -244z" />
<glyph horiz-adv-x="714" d="M47 676v186h85v315h199v-315h154v-186h-154v-676h-199v676h-85zM429 1009l133 331l152 -60l-166 -320z" />
<glyph horiz-adv-x="984" d="M16 0l558 676h-439v186h833l-557 -675h512v-187h-907zM220 1277l136 105l178 -167l176 168l135 -106l-311 -283z" />
<glyph unicode="&#xa1;" horiz-adv-x="1024" d="M200 1277l136 105l178 -167l176 168l135 -106l-311 -283z" />
<glyph unicode="&#xa2;" horiz-adv-x="1024" d="M195 1293h164q20 -139 153 -139q134 0 154 139h163q-11 -113 -62 -179q-91 -117 -259 -117q-160 0 -251 117q-53 69 -62 179z" />
<glyph unicode="&#xa3;" d="M54 59q73 125 134 171q65 46 148 53q20 72 20 127q0 61 -30 118h-233v145h160q-86 173 -86 291q0 189 150 315q129 109 306 109q150 0 262 -79q162 -115 173 -364l-202 -75q-2 84 -6 116q-12 105 -79 159q-61 49 -149 49q-136 0 -205 -107q-39 -60 -39 -138 q0 -60 43 -162q12 -27 60 -114h266v-145h-207q23 -82 23 -124q0 -49 -26 -142q79 -27 108 -38q116 -42 158 -42q45 0 81 42q24 29 58 87l165 -99q-45 -95 -86 -138q-86 -93 -216 -93q-82 0 -227 53q-69 25 -112 39q-53 17 -98 17q-56 0 -89 -38q-17 -19 -48 -83z" />
<glyph unicode="&#xa4;" horiz-adv-x="1366" d="M76 1243l113 113l203 -203q143 98 292 98q148 0 287 -96l202 200l112 -113l-200 -200q98 -145 98 -288q0 -145 -96 -285l203 -203l-112 -113l-202 203q-137 -99 -291 -99q-144 0 -292 97l-202 -201l-112 113l202 201q-98 133 -98 288q0 147 97 284zM371 754 q0 -140 104 -234q89 -80 208 -80q138 0 232 103q81 88 81 210q0 131 -89 220q-94 95 -228 95q-133 0 -227 -104q-81 -89 -81 -210z" />
<glyph unicode="&#xa5;" horiz-adv-x="1341" d="M7 0l676 1452l651 -1452q-73 -62 -101 -93q-43 -48 -43 -96q0 -32 24 -50q18 -14 44 -14q52 0 142 48l-30 -165q-62 -41 -151 -41q-97 0 -153 52q-58 52 -58 126q0 113 161 233h-60l-144 332h-584l-152 -332h-222zM467 526h415l-203 464z" />
<glyph unicode="&#xa6;" horiz-adv-x="1024" d="M410 314h205v-655h-205v655zM410 670v695h205v-695h-205z" />
<glyph unicode="&#xa7;" d="M169 17h194q26 -210 204 -210q96 0 143 59q39 49 39 126q0 95 -70 143q-43 29 -171 79q-148 58 -211 106q-110 86 -110 250q0 224 193 309q-159 96 -159 265q0 167 135 276q111 89 255 89q151 0 257 -99q114 -107 123 -317h-189q-5 76 -22 120q-42 105 -168 105 q-94 0 -150 -63q-44 -49 -44 -123q0 -79 62 -121q38 -25 173 -74q153 -55 224 -107q114 -84 114 -255q0 -131 -74 -220q-37 -45 -119 -96q58 -38 88 -74q63 -77 63 -196q0 -169 -118 -275q-107 -97 -268 -97q-167 0 -278 102q-105 97 -116 298zM382 572q0 -82 61 -142 q59 -59 146 -59q85 0 146 59q60 59 60 141q0 85 -60 142q-62 59 -149 59q-84 0 -143 -59q-61 -59 -61 -141z" />
<glyph unicode="&#xa8;" horiz-adv-x="1024" d="M201 1134q0 53 37 90q38 37 91 37q51 0 88 -37t37 -89q0 -53 -37 -90t-90 -37q-52 0 -89 37q-37 38 -37 89zM571 1134q0 53 37 90q38 37 91 37q51 0 88 -37t37 -89q0 -53 -37 -90t-90 -37q-52 0 -89 37q-37 38 -37 89z" />
<glyph unicode="&#xa9;" horiz-adv-x="1553" d="M68 684q0 144 56.5 277.5t159.5 232.5q97 93 224 146q129 53 259 53q199 0 364 -94q162 -94 258 -262q95 -166 95 -355q0 -151 -61.5 -289t-173.5 -239q-201 -182 -472 -182q-150 0 -287.5 61.5t-238.5 173.5q-183 203 -183 477zM182 683q0 -130 52.5 -249.5 t148.5 -205.5q169 -153 393 -153q125 0 239 51.5t198 145.5q156 174 156 410q0 129 -52 248.5t-147 206.5q-166 153 -391 153h-7q-111 0 -218 -44.5t-189 -124.5q-87 -85 -135 -199.5t-48 -238.5zM367 679q0 186 142 314q126 114 307 114q116 0 233 -63v-178q-53 41 -69 52 q-79 49 -173 49q-136 0 -220 -103q-64 -80 -64 -184q0 -130 94 -211q82 -71 191 -71q93 0 175 55q16 10 66 49v-180q-117 -64 -242 -64q-189 0 -317 128q-123 123 -123 293z" />
<glyph unicode="&#xaa;" horiz-adv-x="1055" d="M96 377l208 46q13 -104 39 -150q27 -48 80.5 -76.5t116.5 -28.5q104 0 168 74q56 64 56 154q0 115 -95 179q-46 30 -100 53l-132 56q-280 118 -280 346q0 183 156 286q114 75 254 75q155 0 264 -94q54 -47 105 -135l-167 -99q-37 61 -65 86q-52 48 -138 48 q-90 0 -146 -51q-54 -49 -54 -119q0 -68 65 -113q41 -29 84 -47l136 -55q171 -70 244 -166q76 -100 76 -235q0 -198 -139 -326q-120 -111 -300 -111q-231 0 -357 182q-59 85 -79 221zM348 -392l186 283l175 -79l-232 -272z" />
<glyph unicode="&#xab;" horiz-adv-x="1042" d="M82 437l340 451l132 -97l-264 -353l265 -339l-132 -98zM461 437l340 451l132 -97l-265 -353l265 -339l-132 -98z" />
<glyph unicode="&#xac;" horiz-adv-x="1024" d="M68 355v191h887v-546h-205v355h-682z" />
<glyph unicode="&#xad;" horiz-adv-x="395" d="M0 351v173h395v-173h-395z" />
<glyph unicode="&#xae;" horiz-adv-x="1553" d="M68 684q0 144 56.5 277.5t159.5 232.5q97 93 224 146q129 53 259 53q199 0 364 -94q162 -94 258 -262q95 -166 95 -355q0 -151 -61.5 -289t-173.5 -239q-201 -182 -472 -182q-150 0 -287.5 61.5t-238.5 173.5q-183 203 -183 477zM182 683q0 -130 52.5 -249.5 t148.5 -205.5q169 -153 393 -153q125 0 239 51.5t198 145.5q156 174 156 410q0 129 -52 248.5t-147 206.5q-166 153 -391 153h-7q-111 0 -218 -44.5t-189 -124.5q-87 -85 -135 -199.5t-48 -238.5zM522 273v819h164q152 0 230 -48q49 -30 78.5 -84t29.5 -114q0 -85 -53 -150 q-46 -57 -114 -77l-10 -3l265 -343h-191l-243 324v-324h-156zM677 729h27q168 0 168 115q0 108 -163 108h-32v-223z" />
<glyph unicode="&#xaf;" horiz-adv-x="1132" d="M61 0l670 1171h-561v194h900l-671 -1171h656v-194h-994zM466 1636q0 55 39 94q40 39 96 39q54 0 93 -39t39 -94t-39 -95q-39 -39 -95 -39q-55 0 -94 39q-39 40 -39 95z" />
<glyph unicode="&#xb0;" d="M307 1112q0 116 80 193q83 80 197 80q108 0 189 -80q80 -78 80 -192t-80 -193q-80 -80 -193 -80t-193 80q-80 79 -80 192zM437 1112q0 -61 42 -105t101 -44t101 44t42 104t-42 98q-43 40 -103 40q-56 0 -99 -40q-42 -39 -42 -97z" />
<glyph unicode="&#xb1;" d="M109 0v164h942v-164h-942zM109 628v164h389v382h164v-382h389v-164h-389v-355h-164v355h-389z" />
<glyph unicode="&#xb2;" horiz-adv-x="1024" d="M352 -223q0 78 56 143q28 32 101 80h149q-149 -101 -149 -173q0 -63 78 -63q49 0 112 15l-18 -128q-62 -37 -132 -37q-90 0 -148 53q-49 46 -49 110z" />
<glyph unicode="&#xb3;" horiz-adv-x="541" d="M41 478v198l130 90v728h199v-629l130 91v-198l-130 -90v-668h-199v568z" />
<glyph unicode="&#xb4;" horiz-adv-x="1024" d="M420 1060l243 323l187 -98l-321 -291z" />
<glyph unicode="&#xb5;" horiz-adv-x="987" d="M126 -470v1332h199v-499q0 -210 169 -210q102 0 144 77q25 45 25 137v495h199v-499q0 -135 -37 -206q-49 -94 -148 -143q-80 -40 -176 -40q-103 0 -190 46l14 -490h-199z" />
<glyph unicode="&#xb6;" d="M55 1018q0 95 37 171.5t104 118.5q89 57 259 57h633l-113 -191h-54v-1369h-189v1369h-152v-1369h-189v880q-19 -1 -29 -1q-149 0 -237 111q-70 88 -70 223z" />
<glyph unicode="&#xb7;" horiz-adv-x="519" d="M137 437q0 51 36 87q37 36 88 36q50 0 86 -36t36 -87t-36 -87t-87 -36t-87 36q-36 37 -36 87z" />
<glyph unicode="&#xb8;" horiz-adv-x="1024" d="M356 -383l176 274l164 -68l-211 -271z" />
<glyph unicode="&#xb9;" horiz-adv-x="1085" d="M85 433q0 210 129 337q118 115 277 115q122 0 214 -71q23 -18 56 -53v101h199v-862q-149 -101 -149 -173q0 -63 78 -63q49 0 112 15l-18 -128q-63 -37 -132 -37q-90 0 -148 53q-49 46 -49 110q0 78 56 143q28 32 101 80h-50v90q-49 -46 -86 -68q-78 -48 -178 -48 q-189 0 -309 145q-103 124 -103 314zM288 429q0 -131 81 -213q63 -63 159 -63q118 0 188 89q57 73 57 189q0 130 -76 206q-68 69 -173 69q-106 0 -172 -84q-64 -80 -64 -193z" />
<glyph unicode="&#xba;" horiz-adv-x="735" d="M67 187l169 78q26 -47 45 -68q39 -44 94 -44q57 0 83 34q20 25 20 58q0 50 -52 82q-35 21 -147 76q-94 46 -127 90q-40 53 -40 133q0 120 82 190q80 69 186 69q116 0 191 -82q26 -29 55 -88l-165 -88q-38 79 -97 79q-27 0 -47 -19q-18 -18 -18 -42q0 -30 28 -52 q20 -16 87 -47q111 -51 164 -88q103 -71 103 -194q0 -122 -91 -208q-88 -82 -216 -82q-217 0 -307 213zM143 -383l176 274l164 -68l-211 -271z" />
<glyph unicode="&#xbb;" horiz-adv-x="1042" d="M109 99l265 339l-265 353l132 97l341 -451l-341 -436zM488 99l265 339l-265 353l132 97l340 -451l-340 -436z" />
<glyph unicode="&#xbc;" horiz-adv-x="803" d="M164 0v1365h206v-1171h402v-194h-608zM497 1038l133 334l155 -59l-166 -323z" />
<glyph unicode="&#xbd;" horiz-adv-x="1024" d="M259 1060l215 323l168 -98l-295 -291zM628 1060l215 323l168 -98l-296 -291z" />
<glyph unicode="&#xbe;" horiz-adv-x="706" d="M126 0v1494h199v-1494h-199zM421 1163l133 331l152 -60l-166 -320z" />
<glyph unicode="&#xbf;" horiz-adv-x="984" d="M16 0l558 676h-439v186h833l-557 -675h512v-187h-907zM399 1141q0 55 39 94q40 39 95 39q54 0 93 -39t39 -94t-39 -94t-94 -39t-94 39q-39 40 -39 94z" />
<glyph unicode="&#xc0;" horiz-adv-x="1090" d="M164 0v1365h241q132 0 214 -18t146 -61q76 -51 121 -141q42 -85 42 -181q0 -107 -52 -200q-81 -146 -250 -182l423 -582h-252l-390 559h-37v-559h-206zM357 1570l283 285l175 -123l-360 -244zM370 739h66q136 0 205 49q86 60 86 174q0 106 -80 162q-68 47 -204 47h-73 v-432z" />
<glyph unicode="&#xc1;" horiz-adv-x="1341" d="M7 0l676 1452l651 -1452h-225l-144 332h-584l-152 -332h-222zM467 526h415l-203 464zM537 1570l283 285l175 -123l-360 -244z" />
<glyph unicode="&#xc2;" horiz-adv-x="1341" d="M7 0l676 1452l651 -1452h-225l-144 332h-584l-152 -332h-222zM372 1594l310 283l315 -283l-136 -106l-178 168l-176 -168zM467 526h415l-203 464z" />
<glyph unicode="&#xc3;" horiz-adv-x="1341" d="M7 0l676 1452l651 -1452h-225l-144 332h-584l-152 -332h-222zM354 1791h164q20 -139 153 -139q134 0 154 139h163q-11 -113 -62 -179q-91 -117 -259 -117q-160 0 -251 117q-53 69 -62 179zM467 526h415l-203 464z" />
<glyph unicode="&#xc4;" horiz-adv-x="1341" d="M7 0l676 1452l651 -1452h-225l-144 332h-584l-152 -332h-222zM359 1628q0 53 37 90q38 37 91 37q51 0 88 -37t37 -89q0 -53 -37 -90t-90 -37q-52 0 -89 37q-37 38 -37 89zM467 526h415l-203 464zM756 1628q0 53 37 90q38 37 91 37q51 0 88 -37t37 -89q0 -53 -37 -90 t-90 -37q-52 0 -89 37q-37 38 -37 89z" />
<glyph unicode="&#xc5;" horiz-adv-x="803" d="M164 0v1365h206v-1171h402v-194h-608zM172 1570l283 285l175 -123l-360 -244z" />
<glyph unicode="&#xc6;" horiz-adv-x="1268" d="M96 676q0 147 60 284t168 239q203 192 493 192q184 0 356 -100v-244q-91 77 -163 107q-102 43 -206 43q-114 0 -215 -49t-171 -138q-114 -144 -114 -332q0 -235 166 -382q144 -128 334 -128q129 0 247 65q47 26 122 90v-248q-177 -101 -372 -101q-156 0 -295.5 64 t-239.5 181q-170 199 -170 457zM624 1570l283 285l175 -123l-360 -244z" />
<glyph unicode="&#xc7;" horiz-adv-x="1268" d="M96 676q0 147 60 284t168 239q203 192 493 192q184 0 356 -100v-244q-91 77 -163 107q-102 43 -206 43q-114 0 -215 -49t-171 -138q-114 -144 -114 -332q0 -235 166 -382q144 -128 334 -128q129 0 247 65q47 26 122 90v-248q-177 -101 -372 -101q-156 0 -295.5 64 t-239.5 181q-170 199 -170 457zM532 -392l186 283l175 -79l-232 -272z" />
<glyph unicode="&#xc8;" horiz-adv-x="1268" d="M96 676q0 147 60 284t168 239q203 192 493 192q184 0 356 -100v-244q-91 77 -163 107q-102 43 -206 43q-114 0 -215 -49t-171 -138q-114 -144 -114 -332q0 -235 166 -382q144 -128 334 -128q129 0 247 65q47 26 122 90v-248q-177 -101 -372 -101q-156 0 -295.5 64 t-239.5 181q-170 199 -170 457zM472 1772l136 105l178 -167l176 167l135 -105l-311 -284z" />
<glyph unicode="&#xc9;" horiz-adv-x="1024" d="M164 0v1365h754v-194h-548v-327h531v-194h-531v-456h548v-194h-754zM392 1570l283 285l175 -123l-360 -244z" />
<glyph unicode="&#xca;" horiz-adv-x="1024" d="M164 0v1365h754v-194h-548v-327h531v-194h-531v-456h548v-194q-73 -61 -102 -93q-43 -49 -43 -96q0 -32 24 -50q18 -14 44 -14q53 0 142 48l-30 -165q-62 -41 -151 -41q-97 0 -153 52q-58 53 -58 126q0 112 161 233h-588z" />
<glyph unicode="&#xcb;" horiz-adv-x="1024" d="M164 0v1365h754v-194h-548v-327h531v-194h-531v-456h548v-194h-754zM216 1628q0 53 37 90q38 37 91 37q51 0 88 -37t37 -89q0 -53 -37 -90t-90 -37q-52 0 -89 37q-37 38 -37 89zM613 1628q0 53 37 90q38 37 91 37q51 0 88 -37t37 -89q0 -53 -37 -90t-90 -37q-52 0 -89 37 q-37 38 -37 89z" />
<glyph unicode="&#xcc;" horiz-adv-x="1024" d="M164 0v1365h754v-194h-548v-327h531v-194h-531v-456h548v-194h-754zM228 1772l136 105l178 -167l176 167l135 -105l-311 -284z" />
<glyph unicode="&#xcd;" horiz-adv-x="534" d="M161 1570l283 285l175 -123l-360 -244zM164 0v1365h206v-1365h-206z" />
<glyph unicode="&#xce;" horiz-adv-x="534" d="M-45 1594l310 283l315 -283l-136 -106l-178 168l-176 -168zM164 0v1365h206v-1365h-206z" />
<glyph unicode="&#xcf;" horiz-adv-x="1315" d="M164 0v1365h287q219 0 345 -47q224 -83 339 -290q84 -152 84 -345q0 -355 -273 -552q-131 -94 -271 -116q-92 -15 -228 -15h-283zM277 1772l136 105l178 -167l176 167l135 -105l-311 -284zM370 194h93q124 0 207.5 22.5t154.5 75.5q89 66 137.5 168t48.5 222 q0 168 -91 297q-91 128 -246 169q-84 23 -211 23h-93v-977z" />
<glyph unicode="&#xd0;" horiz-adv-x="1315" d="M41 622v177h123v566h287q220 0 346 -47q224 -84 339 -290q84 -151 84 -345q0 -355 -274 -552q-130 -94 -271 -116q-91 -15 -228 -15h-283v622h-123zM370 194h93q124 0 207.5 22.5t154.5 75.5q90 67 138.5 168.5t48.5 221.5q0 169 -91 297t-246 169q-85 23 -212 23h-93 v-372h294v-177h-294v-428z" />
<glyph unicode="&#xd1;" horiz-adv-x="1529" d="M164 0v1458l995 -1041v948h206v-1449l-995 1040v-956h-206zM631 1570l283 285l175 -123l-360 -244z" />
<glyph unicode="&#xd2;" horiz-adv-x="1529" d="M164 0v1458l995 -1041v948h206v-1449l-995 1040v-956h-206zM452 1772l136 105l178 -167l176 167l135 -105l-311 -284z" />
<glyph unicode="&#xd3;" horiz-adv-x="1618" d="M96 682q0 298 218 507q210 202 510 202q142 0 276 -60.5t235 -171.5q188 -205 188 -478q0 -149 -61 -285.5t-173 -236.5q-205 -185 -481 -185q-152 0 -295 64t-245 178q-172 191 -172 466zM304 677q0 -218 152 -364q151 -145 354 -145q109 0 210.5 47t173.5 131 q121 140 121 340q0 211 -145 363q-143 148 -368 148q-231 0 -379 -180q-119 -145 -119 -340zM662 1570l283 285l175 -123l-360 -244z" />
<glyph unicode="&#xd4;" horiz-adv-x="1618" d="M96 682q0 298 218 507q210 202 510 202q142 0 276 -60.5t235 -171.5q188 -205 188 -478q0 -149 -61 -285.5t-173 -236.5q-205 -185 -481 -185q-152 0 -295 64t-245 178q-172 191 -172 466zM304 677q0 -218 152 -364q151 -145 354 -145q109 0 210.5 47t173.5 131 q121 140 121 340q0 211 -145 363q-143 148 -368 148q-231 0 -379 -180q-119 -145 -119 -340zM497 1594l310 283l315 -283l-136 -106l-178 168l-176 -168z" />
<glyph unicode="&#xd5;" horiz-adv-x="1618" d="M96 682q0 298 218 507q210 202 510 202q142 0 276 -60.5t235 -171.5q188 -205 188 -478q0 -149 -61 -285.5t-173 -236.5q-205 -185 -481 -185q-152 0 -295 64t-245 178q-172 191 -172 466zM304 677q0 -218 152 -364q151 -145 354 -145q109 0 210.5 47t173.5 131 q121 140 121 340q0 211 -145 363q-143 148 -368 148q-231 0 -379 -180q-119 -145 -119 -340zM467 1600q54 77 77 102q59 64 148 64q69 0 161 -47q65 -33 81.5 -39.5t35.5 -6.5q37 0 70 37q14 15 41 58l112 -94q-85 -170 -230 -170q-44 0 -81 14q-28 11 -80 35 q-87 41 -121 41q-50 0 -98 -92z" />
<glyph unicode="&#xd6;" horiz-adv-x="1618" d="M96 682q0 298 218 507q210 202 510 202q142 0 276 -60.5t235 -171.5q188 -205 188 -478q0 -149 -61 -285.5t-173 -236.5q-205 -185 -481 -185q-152 0 -295 64t-245 178q-172 191 -172 466zM304 677q0 -218 152 -364q151 -145 354 -145q109 0 210.5 47t173.5 131 q121 140 121 340q0 211 -145 363q-143 148 -368 148q-231 0 -379 -180q-119 -145 -119 -340zM484 1628q0 53 37 90q38 37 91 37q51 0 88 -37t37 -89q0 -53 -37 -90t-90 -37q-52 0 -89 37q-37 38 -37 89zM882 1628q0 53 37 90q38 37 91 37q51 0 88 -37t37 -89q0 -53 -37 -90 t-90 -37q-52 0 -89 37q-37 38 -37 89z" />
<glyph unicode="&#xd7;" d="M177 419l291 291l-291 292l112 112l291 -292l292 292l112 -112l-291 -292l291 -291l-112 -112l-292 291l-291 -291z" />
<glyph unicode="&#xd8;" horiz-adv-x="1090" d="M164 0v1365h241q132 0 214 -18t146 -61q76 -51 121 -141q42 -85 42 -181q0 -107 -52 -200q-81 -146 -250 -182l423 -582h-252l-390 559h-37v-559h-206zM192 1772l136 105l178 -167l176 167l135 -105l-311 -284zM370 739h66q136 0 205 49q86 60 86 174q0 106 -80 162 q-68 47 -204 47h-73v-432z" />
<glyph unicode="&#xd9;" horiz-adv-x="1338" d="M164 487v878h206v-822q0 -112 15 -166q24 -92 98 -148q81 -61 186 -61q121 0 206 78q67 61 84 156q9 48 9 141v822h206v-878q0 -191 -104 -322q-71 -90 -178 -140q-106 -51 -223 -51q-166 0 -302 97q-203 145 -203 416zM477 1682q0 80 57 136q56 57 138 57q77 0 134 -57 q56 -56 56 -136q0 -81 -56 -137q-57 -57 -137 -57t-135 57q-57 57 -57 137zM582 1682q0 -36 26 -62q25 -26 61 -26q37 0 62 26q26 25 26 61q0 37 -26 62q-26 26 -63 26q-35 0 -60 -26q-26 -25 -26 -61z" />
<glyph unicode="&#xda;" horiz-adv-x="1338" d="M164 487v878h206v-822q0 -112 15 -166q24 -92 98 -148q81 -61 186 -61q121 0 206 78q67 61 84 156q9 48 9 141v822h206v-878q0 -191 -104 -322q-71 -90 -178 -140q-106 -51 -223 -51q-166 0 -302 97q-203 145 -203 416zM522 1570l283 285l175 -123l-360 -244z" />
<glyph unicode="&#xdb;" horiz-adv-x="1338" d="M164 487v878h206v-822q0 -112 15 -166q24 -92 98 -148q81 -61 186 -61q121 0 206 78q67 61 84 156q9 48 9 141v822h206v-878q0 -191 -104 -322q-71 -90 -178 -140q-106 -51 -223 -51q-166 0 -302 97q-203 145 -203 416zM381 1570l228 285l171 -123l-312 -244zM804 1570 l228 285l172 -123l-313 -244z" />
<glyph unicode="&#xdc;" horiz-adv-x="1338" d="M164 487v878h206v-822q0 -112 15 -166q24 -92 98 -148q81 -61 186 -61q121 0 206 78q67 61 84 156q9 48 9 141v822h206v-878q0 -191 -104 -322q-71 -90 -178 -140q-106 -51 -223 -51q-166 0 -302 97q-203 145 -203 416zM344 1628q0 53 37 90q38 37 91 37q51 0 88 -37 t37 -89q0 -53 -37 -90t-90 -37q-52 0 -89 37q-37 38 -37 89zM741 1628q0 53 37 90q38 37 91 37q51 0 88 -37t37 -89q0 -53 -37 -90t-90 -37q-52 0 -89 37q-37 38 -37 89z" />
<glyph unicode="&#xdd;" horiz-adv-x="1087" d="M-7 1365h238l312 -546l313 546h237l-447 -775v-590h-206v590zM444 1570l283 285l175 -123l-360 -244z" />
<glyph unicode="&#xde;" horiz-adv-x="874" d="M20 1171v194h833v-194h-313v-1171h-206v1171h-314zM238 -443l133 333l155 -59l-166 -323z" />
<glyph unicode="&#xdf;" horiz-adv-x="1127" d="M55 685v177h71v217q0 189 79 295q48 64 128 100q94 43 199 43q196 0 308 -126q97 -110 97 -256q0 -174 -146 -273q68 -29 121 -82q130 -131 130 -322q0 -162 -102 -289q-157 -197 -440 -198v192q130 3 208 55q131 87 131 245q0 109 -69 186q-59 65 -176 88q-29 6 -94 13 v182q108 3 160 42q36 28 58 74.5t22 95.5q0 94 -69 150q-54 44 -137 44q-97 0 -152 -56q-45 -46 -52 -165q-1 -13 -5 -135v-982h-199v685h-71z" />
<glyph unicode="&#xe0;" horiz-adv-x="678" d="M126 0v862h199v-77q51 53 86 73q50 28 113 28q79 0 165 -52l-92 -182q-57 41 -110 41q-78 0 -120 -57q-42 -56 -42 -190v-446h-199zM233 1060l243 323l187 -98l-321 -291z" />
<glyph unicode="&#xe1;" horiz-adv-x="1085" d="M85 433q0 210 129 337q118 115 277 115q122 0 214 -71q23 -18 56 -53v101h199v-862h-199v90q-49 -46 -86 -68q-78 -48 -178 -48q-189 0 -309 145q-103 124 -103 314zM288 429q0 -131 81 -213q63 -63 159 -63q118 0 188 89q57 73 57 189q0 130 -76 206q-68 69 -173 69 q-106 0 -172 -84q-64 -80 -64 -193zM417 1060l243 323l187 -98l-321 -291z" />
<glyph unicode="&#xe2;" horiz-adv-x="1085" d="M85 433q0 210 129 337q118 115 277 115q122 0 214 -71q23 -18 56 -53v101h199v-862h-199v90q-49 -46 -86 -68q-78 -48 -178 -48q-189 0 -309 145q-103 124 -103 314zM244 1099l310 284l315 -284l-136 -105l-178 167l-176 -167zM288 429q0 -131 81 -213q63 -63 159 -63 q118 0 188 89q57 73 57 189q0 130 -76 206q-68 69 -173 69q-106 0 -172 -84q-64 -80 -64 -193z" />
<glyph unicode="&#xe3;" horiz-adv-x="1085" d="M85 433q0 210 129 337q118 115 277 115q122 0 214 -71q23 -18 56 -53v101h199v-862h-199v90q-49 -46 -86 -68q-78 -48 -178 -48q-189 0 -309 145q-103 124 -103 314zM226 1293h164q20 -139 153 -139q134 0 154 139h163q-11 -113 -62 -179q-91 -117 -259 -117 q-160 0 -251 117q-53 69 -62 179zM288 429q0 -131 81 -213q63 -63 159 -63q118 0 188 89q57 73 57 189q0 130 -76 206q-68 69 -173 69q-106 0 -172 -84q-64 -80 -64 -193z" />
<glyph unicode="&#xe4;" horiz-adv-x="1085" d="M85 433q0 210 129 337q118 115 277 115q122 0 214 -71q23 -18 56 -53v101h199v-862h-199v90q-49 -46 -86 -68q-78 -48 -178 -48q-189 0 -309 145q-103 124 -103 314zM239 1134q0 53 37 90q38 37 91 37q51 0 88 -37t37 -89q0 -53 -37 -90t-90 -37q-52 0 -89 37 q-37 38 -37 89zM288 429q0 -131 81 -213q63 -63 159 -63q118 0 188 89q57 73 57 189q0 130 -76 206q-68 69 -173 69q-106 0 -172 -84q-64 -80 -64 -193zM609 1134q0 53 37 90q38 37 91 37q51 0 88 -37t37 -89q0 -53 -37 -90t-90 -37q-52 0 -89 37q-37 38 -37 89z" />
<glyph unicode="&#xe5;" horiz-adv-x="451" d="M126 0v1455h199v-1455h-199zM127 1615l258 273l161 -117l-325 -234z" />
<glyph unicode="&#xe6;" horiz-adv-x="863" d="M84 427q0 93 38.5 181.5t107.5 153.5q129 123 325 123q129 0 241 -60v-265q-67 81 -113 109q-61 37 -134 37q-120 0 -194 -87q-67 -78 -67 -189q0 -118 73 -200q68 -77 184 -77q87 0 155 50q36 26 96 98v-263q-121 -64 -243 -64q-216 0 -349 146q-120 132 -120 307z M374 1060l243 323l187 -98l-321 -291z" />
<glyph unicode="&#xe7;" horiz-adv-x="863" d="M84 427q0 93 38.5 181.5t107.5 153.5q129 123 325 123q129 0 241 -60v-265q-67 81 -113 109q-61 37 -134 37q-120 0 -194 -87q-67 -78 -67 -189q0 -118 73 -200q68 -77 184 -77q87 0 155 50q36 26 96 98v-263q-121 -64 -243 -64q-216 0 -349 146q-120 132 -120 307z M290 -383l176 274l164 -68l-211 -271z" />
<glyph unicode="&#xe8;" horiz-adv-x="863" d="M84 427q0 93 38.5 181.5t107.5 153.5q129 123 325 123q129 0 241 -60v-265q-67 81 -113 109q-61 37 -134 37q-120 0 -194 -87q-67 -78 -67 -189q0 -118 73 -200q68 -77 184 -77q87 0 155 50q36 26 96 98v-263q-121 -64 -243 -64q-216 0 -349 146q-120 132 -120 307z M188 1277l136 105l178 -167l176 168l135 -106l-311 -283z" />
<glyph unicode="&#xe9;" horiz-adv-x="1002" d="M85 430q0 105 33 195t92 148q114 112 290 112q148 0 259 -82q152 -114 152 -370q0 -15 -1 -49h-617q5 -63 30 -112q60 -119 195 -119q92 0 155 62q32 33 77 104l168 -94q-59 -98 -115 -147q-121 -104 -292 -104q-208 0 -332 150q-94 115 -94 306zM306 546h400 q-14 55 -40 87q-58 73 -161 73q-105 0 -165 -86q-23 -32 -34 -74zM368 1060l243 323l187 -98l-321 -291z" />
<glyph unicode="&#xea;" horiz-adv-x="1002" d="M85 430q0 105 33 195t92 148q114 112 290 112q148 0 259 -82q152 -114 152 -370q0 -15 -1 -49h-617q5 -63 30 -112q60 -119 195 -119q92 0 155 62q32 33 77 104l168 -94q-53 -88 -93 -127q-46 -43 -134 -99q-138 -88 -138 -174q0 -61 78 -61q49 0 112 15l-18 -128 q-62 -37 -132 -37q-90 0 -148 53q-49 46 -49 110q0 115 122 199h-25q-82 0 -160 33q-248 107 -248 421zM306 546h400q-14 55 -40 87q-58 73 -161 73q-105 0 -165 -86q-23 -32 -34 -74z" />
<glyph unicode="&#xeb;" horiz-adv-x="1002" d="M85 430q0 105 33 195t92 148q114 112 290 112q148 0 259 -82q152 -114 152 -370q0 -15 -1 -49h-617q5 -63 30 -112q60 -119 195 -119q92 0 155 62q32 33 77 104l168 -94q-59 -98 -115 -147q-121 -104 -292 -104q-208 0 -332 150q-94 115 -94 306zM197 1134q0 53 37 90 q38 37 91 37q51 0 88 -37t37 -89q0 -53 -37 -90t-90 -37q-52 0 -89 37q-37 38 -37 89zM306 546h400q-14 55 -40 87q-58 73 -161 73q-105 0 -165 -86q-23 -32 -34 -74zM567 1134q0 53 37 90q38 37 91 37q51 0 88 -37t37 -89q0 -53 -37 -90t-90 -37q-52 0 -89 37 q-37 38 -37 89z" />
<glyph unicode="&#xec;" horiz-adv-x="1002" d="M85 430q0 105 33 195t92 148q114 112 290 112q148 0 259 -82q152 -114 152 -370q0 -15 -1 -49h-617q5 -63 30 -112q60 -119 195 -119q92 0 155 62q32 33 77 104l168 -94q-59 -98 -115 -147q-121 -104 -292 -104q-208 0 -332 150q-94 115 -94 306zM196 1277l136 105 l178 -167l176 168l135 -106l-311 -283zM306 546h400q-14 55 -40 87q-58 73 -161 73q-105 0 -165 -86q-23 -32 -34 -74z" />
<glyph unicode="&#xed;" horiz-adv-x="451" d="M126 0v862h199v-862h-199zM134 1060l222 323l180 -98l-293 -291z" />
<glyph unicode="&#xee;" horiz-adv-x="451" d="M-73 1099l310 284l315 -284l-136 -105l-178 167l-176 -167zM126 0v862h199v-862h-199z" />
<glyph unicode="&#xef;" horiz-adv-x="1341" d="M85 433q0 210 129 337q118 115 277 115q151 0 270 -123v732h199v-1494h-199v90q-119 -116 -267 -116q-186 0 -306 145q-103 124 -103 314zM288 429q0 -131 81 -213q63 -63 159 -63q118 0 188 89q57 72 57 189q0 130 -76 206q-68 69 -173 69q-106 0 -172 -84 q-64 -80 -64 -193zM1056 1163l133 331l152 -60l-166 -320z" />
<glyph unicode="&#xf0;" horiz-adv-x="1085" d="M85 433q0 210 130 337q117 115 275 115q152 0 271 -123v370h-232v164h232v198h199v-198h109v-164h-109v-1132h-199v90q-119 -116 -267 -116q-186 0 -306 145q-103 124 -103 314zM288 429q0 -131 81 -213q63 -63 159 -63q118 0 188 89q57 72 57 189q0 130 -76 206 q-68 69 -173 69q-106 0 -172 -84q-64 -80 -64 -193z" />
<glyph unicode="&#xf1;" horiz-adv-x="993" d="M126 0v862h199v-80q41 40 70 59q70 44 167 44q80 0 147.5 -31.5t104.5 -85.5q54 -79 54 -240v-528h-199v482q0 118 -26 162q-38 62 -136 62q-118 0 -155 -90q-27 -66 -27 -200v-416h-199zM350 1060l243 323l187 -98l-321 -291z" />
<glyph unicode="&#xf2;" horiz-adv-x="993" d="M126 0v862h199v-80q41 40 70 59q70 44 167 44q80 0 147.5 -31.5t104.5 -85.5q54 -79 54 -240v-528h-199v482q0 118 -26 162q-38 62 -136 62q-118 0 -155 -90q-27 -66 -27 -200v-416h-199zM164 1277l136 105l178 -167l176 168l135 -106l-311 -283z" />
<glyph unicode="&#xf3;" horiz-adv-x="1088" d="M85 433q0 195 146 332q127 120 321 120q206 0 340 -155q112 -129 112 -300q0 -201 -146 -336q-128 -120 -313 -120q-215 0 -349 156q-111 129 -111 303zM288 430q0 -133 76 -208q70 -69 181 -69q129 0 200 92q56 72 56 187q0 129 -76 204q-69 70 -186 70q-125 0 -196 -94 q-55 -74 -55 -182zM411 1060l243 323l187 -98l-321 -291z" />
<glyph unicode="&#xf4;" horiz-adv-x="1088" d="M85 433q0 195 146 332q127 120 321 120q206 0 340 -155q112 -129 112 -300q0 -201 -146 -336q-128 -120 -313 -120q-215 0 -349 156q-111 129 -111 303zM232 1099l310 284l315 -284l-136 -105l-178 167l-176 -167zM288 430q0 -133 76 -208q70 -69 181 -69q129 0 200 92 q56 72 56 187q0 129 -76 204q-69 70 -186 70q-125 0 -196 -94q-55 -74 -55 -182z" />
<glyph unicode="&#xf5;" horiz-adv-x="1088" d="M85 433q0 195 146 332q127 120 321 120q206 0 340 -155q112 -129 112 -300q0 -201 -146 -336q-128 -120 -313 -120q-215 0 -349 156q-111 129 -111 303zM202 1106q54 77 77 101q59 64 148 64q69 0 161 -47q66 -33 82 -39.5t35 -6.5q37 0 70 37q14 16 41 59l112 -95 q-85 -169 -230 -169q-44 0 -81 14q-30 11 -80 35q-87 41 -121 41q-50 0 -98 -92zM288 430q0 -133 76 -208q70 -69 181 -69q129 0 200 92q56 72 56 187q0 129 -76 204q-69 70 -186 70q-125 0 -196 -94q-55 -74 -55 -182z" />
<glyph unicode="&#xf6;" horiz-adv-x="1088" d="M85 433q0 195 146 332q127 120 321 120q206 0 340 -155q112 -129 112 -300q0 -201 -146 -336q-128 -120 -313 -120q-215 0 -349 156q-111 129 -111 303zM233 1134q0 53 37 90q38 37 91 37q51 0 88 -37t37 -89q0 -53 -37 -90t-90 -37q-52 0 -89 37q-37 38 -37 89zM288 430 q0 -133 76 -208q70 -69 181 -69q129 0 200 92q56 72 56 187q0 129 -76 204q-69 70 -186 70q-125 0 -196 -94q-55 -74 -55 -182zM603 1134q0 53 37 90q38 37 91 37q51 0 88 -37t37 -89q0 -53 -37 -90t-90 -37q-52 0 -89 37q-37 38 -37 89z" />
<glyph unicode="&#xf7;" d="M109 628v164h942v-164h-942zM465 403q0 48 34 82q34 33 82 33q46 0 80 -33q33 -34 33 -81q0 -48 -33 -82q-34 -33 -82 -33q-47 0 -80 33q-34 34 -34 81zM465 1016q0 49 34 82t82 33q46 0 80 -33q33 -34 33 -81q0 -48 -33 -81q-34 -34 -82 -34q-47 0 -80 34q-34 34 -34 80 z" />
<glyph unicode="&#xf8;" horiz-adv-x="678" d="M54 1277l136 105l178 -167l176 168l135 -106l-311 -283zM126 0v862h199v-77q51 53 86 73q50 28 113 28q79 0 165 -52l-92 -182q-57 41 -110 41q-78 0 -120 -57q-42 -56 -42 -190v-446h-199z" />
<glyph unicode="&#xf9;" horiz-adv-x="987" d="M126 363v499h199v-495q0 -92 25 -137q42 -77 144 -77t144 77q25 45 25 137v495h199v-499q0 -135 -37 -206q-50 -95 -148 -144q-80 -39 -183 -39q-173 0 -277 109q-58 61 -76 130q-15 61 -15 150zM301 1187q0 80 57 136t138 56q77 0 134 -56q56 -57 56 -136 q0 -80 -56 -137q-57 -56 -137 -56t-135 56q-57 58 -57 137zM406 1187q0 -36 26 -62q25 -26 61 -26q37 0 62 26q26 25 26 61q0 38 -26 62q-26 26 -63 26q-35 0 -60 -26q-26 -25 -26 -61z" />
<glyph unicode="&#xfa;" horiz-adv-x="987" d="M126 363v499h199v-495q0 -92 25 -137q42 -77 144 -77t144 77q25 45 25 137v495h199v-499q0 -135 -37 -206q-50 -95 -148 -144q-80 -39 -183 -39q-173 0 -277 109q-58 61 -76 130q-15 61 -15 150zM374 1060l243 323l187 -98l-321 -291z" />
<glyph unicode="&#xfb;" horiz-adv-x="987" d="M126 363v499h199v-495q0 -92 25 -137q42 -77 144 -77t144 77q25 45 25 137v495h199v-499q0 -135 -37 -206q-50 -95 -148 -144q-80 -39 -183 -39q-173 0 -277 109q-58 61 -76 130q-15 61 -15 150zM241 1060l215 323l168 -98l-295 -291zM610 1060l215 323l168 -98 l-296 -291z" />
<glyph unicode="&#xfc;" horiz-adv-x="987" d="M126 363v499h199v-495q0 -92 25 -137q42 -77 144 -77t144 77q25 45 25 137v495h199v-499q0 -135 -37 -206q-50 -95 -148 -144q-80 -39 -183 -39q-173 0 -277 109q-58 61 -76 130q-15 61 -15 150zM183 1134q0 53 37 90q38 37 91 37q51 0 88 -37t37 -89q0 -53 -37 -90 t-90 -37q-52 0 -89 37q-37 38 -37 89zM553 1134q0 53 37 90q38 37 91 37q51 0 88 -37t37 -89q0 -53 -37 -90t-90 -37q-52 0 -89 37q-37 38 -37 89z" />
<glyph unicode="&#xfd;" horiz-adv-x="984" d="M10 862h231l263 -496l246 496h225l-686 -1332h-227l335 630zM400 1060l243 323l187 -98l-321 -291z" />
<glyph unicode="&#xfe;" horiz-adv-x="495" d="M35 -441l133 331l152 -59l-166 -320zM47 676v186h85v315h199v-315h154v-186h-154v-676h-199v676h-85z" />
<glyph unicode="&#xff;" horiz-adv-x="1024" d="M379 1141q0 55 39 94q40 39 95 39q54 0 93 -39t39 -94t-39 -94t-94 -39t-94 39q-39 40 -39 94z" />
<glyph unicode="&#x152;" horiz-adv-x="1055" d="M96 377l208 46q13 -104 39 -150q27 -48 80.5 -76.5t116.5 -28.5q104 0 168 74q56 64 56 154q0 115 -95 179q-46 30 -100 53l-132 56q-280 118 -280 346q0 183 156 286q114 75 254 75q155 0 264 -94q54 -47 105 -135l-167 -99q-37 61 -65 86q-52 48 -138 48 q-90 0 -146 -51q-54 -49 -54 -119q0 -68 65 -113q41 -29 84 -47l136 -55q171 -70 244 -166q76 -100 76 -235q0 -198 -139 -326q-120 -111 -300 -111q-231 0 -357 182q-59 85 -79 221zM408 1570l283 285l175 -123l-360 -244z" />
<glyph unicode="&#x153;" horiz-adv-x="735" d="M67 187l169 78q26 -47 45 -68q39 -44 94 -44q57 0 83 34q20 25 20 58q0 50 -52 82q-35 21 -147 76q-94 46 -127 90q-40 53 -40 133q0 120 82 190q80 69 186 69q116 0 191 -82q26 -29 55 -88l-165 -88q-38 79 -97 79q-27 0 -47 -19q-18 -18 -18 -42q0 -30 28 -52 q20 -16 87 -47q111 -51 164 -88q103 -71 103 -194q0 -122 -91 -208q-88 -82 -216 -82q-217 0 -307 213zM234 1060l243 323l187 -98l-321 -291z" />
<glyph unicode="&#x178;" horiz-adv-x="984" d="M16 0l558 676h-439v186h833l-557 -675h512v-187h-907zM400 1060l243 323l187 -98l-321 -291z" />
<glyph unicode="&#x2000;" horiz-adv-x="944" />
<glyph unicode="&#x2001;" horiz-adv-x="1888" />
<glyph unicode="&#x2002;" horiz-adv-x="944" />
<glyph unicode="&#x2003;" horiz-adv-x="1888" />
<glyph unicode="&#x2004;" horiz-adv-x="629" />
<glyph unicode="&#x2005;" horiz-adv-x="472" />
<glyph unicode="&#x2006;" horiz-adv-x="314" />
<glyph unicode="&#x2007;" horiz-adv-x="314" />
<glyph unicode="&#x2008;" horiz-adv-x="236" />
<glyph unicode="&#x2009;" horiz-adv-x="377" />
<glyph unicode="&#x200a;" horiz-adv-x="104" />
<glyph unicode="&#x2010;" horiz-adv-x="395" d="M0 351v173h395v-173h-395z" />
<glyph unicode="&#x2011;" horiz-adv-x="395" d="M0 351v173h395v-173h-395z" />
<glyph unicode="&#x2012;" horiz-adv-x="395" d="M0 351v173h395v-173h-395z" />
<glyph unicode="&#x2013;" d="M210 351v173h741v-173h-741z" />
<glyph unicode="&#x2014;" horiz-adv-x="1181" d="M0 351v173h1181v-173h-1181z" />
<glyph unicode="&#x2018;" horiz-adv-x="591" d="M102 919l252 506l135 -55l-210 -520z" />
<glyph unicode="&#x2019;" horiz-adv-x="591" d="M102 906l209 519l178 -69l-252 -506z" />
<glyph unicode="&#x201a;" horiz-adv-x="591" d="M102 -264l209 520l178 -69l-252 -506z" />
<glyph unicode="&#x201c;" horiz-adv-x="945" d="M102 919l252 506l135 -55l-210 -520zM456 919l252 506l134 -55l-209 -520z" />
<glyph unicode="&#x201d;" horiz-adv-x="945" d="M102 906l209 519l178 -69l-252 -506zM456 906l209 519l177 -69l-252 -506z" />
<glyph unicode="&#x201e;" horiz-adv-x="945" d="M102 -264l209 520l178 -69l-252 -506zM456 -264l209 520l177 -69l-252 -506z" />
<glyph unicode="&#x2022;" horiz-adv-x="1365" d="M401 694q0 120 84 202q86 82 204 82q113 0 196 -83q84 -83 84 -201t-83 -201t-201 -83q-116 0 -199 82q-85 84 -85 202z" />
<glyph unicode="&#x2026;" horiz-adv-x="1710" d="M162 97q0 51 36 87t88 36q50 0 86 -36t36 -87t-36 -87t-87 -36t-87 36q-36 37 -36 87zM731 98q0 51 36 87q37 36 89 36q50 0 86 -36t36 -87q0 -52 -36 -88t-88 -36q-51 0 -87 36q-36 37 -36 88zM1302 97q0 51 36 87t88 36q50 0 86 -36t36 -87t-36 -87t-87 -36t-87 36 q-36 37 -36 87z" />
<glyph unicode="&#x202f;" horiz-adv-x="377" />
<glyph unicode="&#x2039;" horiz-adv-x="664" d="M82 437l340 451l132 -97l-264 -353l265 -339l-132 -98z" />
<glyph unicode="&#x203a;" horiz-adv-x="664" d="M109 99l265 339l-265 353l132 97l341 -451l-341 -436z" />
<glyph unicode="&#x205f;" horiz-adv-x="472" />
<glyph unicode="&#x2122;" horiz-adv-x="1438" d="M-2 1231v134h485v-134h-171v-644h-141v644h-173zM531 587l167 849l259 -575l259 575l167 -849h-144l-73 423l-209 -438l-208 438l-74 -423h-144z" />
<glyph unicode="&#x25fc;" horiz-adv-x="860" d="M0 0v860h860v-860h-860z" />
</font>
</defs>
</svg>
