<?xml version="1.0" standalone="no"?>
<!DOCTYPE svg PUBLIC "-//W3C//DTD SVG 20010904//EN"
 "http://www.w3.org/TR/2001/REC-SVG-20010904/DTD/svg10.dtd">
<svg version="1.0" xmlns="http://www.w3.org/2000/svg"
 width="320.000000pt" height="320.000000pt" viewBox="0 0 320.000000 320.000000"
 preserveAspectRatio="xMidYMid meet">
<metadata>
Created by potrace 1.11, written by Peter Selinger 2001-2013
</metadata>
<g transform="translate(0.000000,320.000000) scale(0.100000,-0.100000)"
fill="#000000" stroke="none">
<path d="M512 1833 l3 -1238 88 -3 87 -3 0 -64 0 -65 130 0 130 0 0 -100 0
-100 90 0 89 0 3 -65 c2 -36 6 -65 11 -65 4 0 277 0 607 0 l600 0 0 165 0 165
220 0 220 0 0 1215 0 1215 -70 0 -70 0 0 90 0 90 -1070 0 -1070 0 2 -1237z
m2098 2 l0 -1195 -220 0 -220 0 -2 -168 -3 -167 -585 0 -585 0 -3 167 -2 168
-220 0 -220 0 0 1195 0 1195 1030 0 1030 0 0 -1195z"/>
<path d="M777 1663 c-4 -3 -7 -168 -7 -365 l0 -358 290 0 290 0 0 365 0 365
-283 0 c-156 0 -287 -3 -290 -7z"/>
<path d="M1798 1305 l-3 -365 298 0 297 0 -2 363 -3 362 -292 3 -293 2 -2
-365z"/>
</g>
</svg>
